<mxfile host="Electron" modified="2023-04-22T20:03:50.239Z" agent="Mozilla/5.0 (Windows NT 10.0; Win64; x64) AppleWebKit/537.36 (KHTML, like Gecko) draw.io/21.2.1 Chrome/112.0.5615.87 Electron/24.1.2 Safari/537.36" etag="mh-cfvTGnFdIA-yEAjU9" version="21.2.1" type="device">
  <diagram id="C5RBs43oDa-KdzZeNtuy" name="Page-1">
    <mxGraphModel dx="2206" dy="1298" grid="1" gridSize="10" guides="1" tooltips="1" connect="1" arrows="1" fold="1" page="1" pageScale="1" pageWidth="827" pageHeight="1169" math="0" shadow="0">
      <root>
        <mxCell id="WIyWlLk6GJQsqaUBKTNV-0" />
        <mxCell id="WIyWlLk6GJQsqaUBKTNV-1" parent="WIyWlLk6GJQsqaUBKTNV-0" />
        <mxCell id="px1-QlT_4JjPkUcVD3Ua-44" value="" style="rounded=1;whiteSpace=wrap;html=1;" vertex="1" parent="WIyWlLk6GJQsqaUBKTNV-1">
          <mxGeometry x="400" y="690" width="360" height="434" as="geometry" />
        </mxCell>
        <mxCell id="zInEV3BXZZ9X4-jx_fkC-0" value="Usuario" style="swimlane;fontStyle=0;childLayout=stackLayout;horizontal=1;startSize=26;fillColor=none;horizontalStack=0;resizeParent=1;resizeParentMax=0;resizeLast=0;collapsible=1;marginBottom=0;whiteSpace=wrap;html=1;" parent="WIyWlLk6GJQsqaUBKTNV-1" vertex="1">
          <mxGeometry x="160" y="30" width="200" height="440" as="geometry" />
        </mxCell>
        <mxCell id="zInEV3BXZZ9X4-jx_fkC-1" value="id: string" style="text;strokeColor=none;fillColor=none;align=left;verticalAlign=top;spacingLeft=4;spacingRight=4;overflow=hidden;rotatable=0;points=[[0,0.5],[1,0.5]];portConstraint=eastwest;whiteSpace=wrap;html=1;" parent="zInEV3BXZZ9X4-jx_fkC-0" vertex="1">
          <mxGeometry y="26" width="200" height="26" as="geometry" />
        </mxCell>
        <mxCell id="zInEV3BXZZ9X4-jx_fkC-2" value="username: string(30)" style="text;strokeColor=none;fillColor=none;align=left;verticalAlign=top;spacingLeft=4;spacingRight=4;overflow=hidden;rotatable=0;points=[[0,0.5],[1,0.5]];portConstraint=eastwest;whiteSpace=wrap;html=1;" parent="zInEV3BXZZ9X4-jx_fkC-0" vertex="1">
          <mxGeometry y="52" width="200" height="26" as="geometry" />
        </mxCell>
        <mxCell id="zInEV3BXZZ9X4-jx_fkC-8" value="password: string(15)" style="text;strokeColor=none;fillColor=none;align=left;verticalAlign=top;spacingLeft=4;spacingRight=4;overflow=hidden;rotatable=0;points=[[0,0.5],[1,0.5]];portConstraint=eastwest;whiteSpace=wrap;html=1;" parent="zInEV3BXZZ9X4-jx_fkC-0" vertex="1">
          <mxGeometry y="78" width="200" height="26" as="geometry" />
        </mxCell>
        <mxCell id="zInEV3BXZZ9X4-jx_fkC-4" value="nombres: string(50)" style="text;strokeColor=none;fillColor=none;align=left;verticalAlign=top;spacingLeft=4;spacingRight=4;overflow=hidden;rotatable=0;points=[[0,0.5],[1,0.5]];portConstraint=eastwest;whiteSpace=wrap;html=1;" parent="zInEV3BXZZ9X4-jx_fkC-0" vertex="1">
          <mxGeometry y="104" width="200" height="26" as="geometry" />
        </mxCell>
        <mxCell id="zInEV3BXZZ9X4-jx_fkC-3" value="apellidos: string(50)" style="text;strokeColor=none;fillColor=none;align=left;verticalAlign=top;spacingLeft=4;spacingRight=4;overflow=hidden;rotatable=0;points=[[0,0.5],[1,0.5]];portConstraint=eastwest;whiteSpace=wrap;html=1;" parent="zInEV3BXZZ9X4-jx_fkC-0" vertex="1">
          <mxGeometry y="130" width="200" height="26" as="geometry" />
        </mxCell>
        <mxCell id="zInEV3BXZZ9X4-jx_fkC-5" value="dni: string" style="text;strokeColor=none;fillColor=none;align=left;verticalAlign=top;spacingLeft=4;spacingRight=4;overflow=hidden;rotatable=0;points=[[0,0.5],[1,0.5]];portConstraint=eastwest;whiteSpace=wrap;html=1;" parent="zInEV3BXZZ9X4-jx_fkC-0" vertex="1">
          <mxGeometry y="156" width="200" height="26" as="geometry" />
        </mxCell>
        <mxCell id="zInEV3BXZZ9X4-jx_fkC-7" value="email: string(100)" style="text;strokeColor=none;fillColor=none;align=left;verticalAlign=top;spacingLeft=4;spacingRight=4;overflow=hidden;rotatable=0;points=[[0,0.5],[1,0.5]];portConstraint=eastwest;whiteSpace=wrap;html=1;" parent="zInEV3BXZZ9X4-jx_fkC-0" vertex="1">
          <mxGeometry y="182" width="200" height="26" as="geometry" />
        </mxCell>
        <mxCell id="zInEV3BXZZ9X4-jx_fkC-6" value="telefono: string(15)" style="text;strokeColor=none;fillColor=none;align=left;verticalAlign=top;spacingLeft=4;spacingRight=4;overflow=hidden;rotatable=0;points=[[0,0.5],[1,0.5]];portConstraint=eastwest;whiteSpace=wrap;html=1;" parent="zInEV3BXZZ9X4-jx_fkC-0" vertex="1">
          <mxGeometry y="208" width="200" height="26" as="geometry" />
        </mxCell>
        <mxCell id="zInEV3BXZZ9X4-jx_fkC-11" value="" style="endArrow=none;html=1;rounded=0;entryX=1;entryY=0;entryDx=0;entryDy=0;" parent="zInEV3BXZZ9X4-jx_fkC-0" target="zInEV3BXZZ9X4-jx_fkC-10" edge="1">
          <mxGeometry width="50" height="50" relative="1" as="geometry">
            <mxPoint y="260" as="sourcePoint" />
            <mxPoint x="50" y="210" as="targetPoint" />
          </mxGeometry>
        </mxCell>
        <mxCell id="zInEV3BXZZ9X4-jx_fkC-9" value="esConductor: boolean" style="text;strokeColor=none;fillColor=none;align=left;verticalAlign=top;spacingLeft=4;spacingRight=4;overflow=hidden;rotatable=0;points=[[0,0.5],[1,0.5]];portConstraint=eastwest;whiteSpace=wrap;html=1;" parent="zInEV3BXZZ9X4-jx_fkC-0" vertex="1">
          <mxGeometry y="234" width="200" height="26" as="geometry" />
        </mxCell>
        <mxCell id="zInEV3BXZZ9X4-jx_fkC-10" value="GenerarUsername()&lt;br&gt;LoginUsuario()&lt;br&gt;LoginGoogle()&lt;br&gt;RegistrarUsuario()&lt;br&gt;RegistranEnvio()&lt;br&gt;ObtenerDatosUsuario()&lt;br&gt;RegistrarConductor()&lt;br&gt;ModificarDatosUsuario()&lt;br&gt;&lt;strike&gt;GenerarHistorialDeBoletos&lt;/strike&gt;()&lt;br&gt;" style="text;whiteSpace=wrap;html=1;" parent="zInEV3BXZZ9X4-jx_fkC-0" vertex="1">
          <mxGeometry y="260" width="200" height="180" as="geometry" />
        </mxCell>
        <mxCell id="px1-QlT_4JjPkUcVD3Ua-0" value="Vehiculo" style="swimlane;fontStyle=0;childLayout=stackLayout;horizontal=1;startSize=26;fillColor=none;horizontalStack=0;resizeParent=1;resizeParentMax=0;resizeLast=0;collapsible=1;marginBottom=0;whiteSpace=wrap;html=1;" vertex="1" parent="WIyWlLk6GJQsqaUBKTNV-1">
          <mxGeometry x="457.5" y="30" width="225" height="416" as="geometry" />
        </mxCell>
        <mxCell id="px1-QlT_4JjPkUcVD3Ua-1" value="id: string" style="text;strokeColor=none;fillColor=none;align=left;verticalAlign=top;spacingLeft=4;spacingRight=4;overflow=hidden;rotatable=0;points=[[0,0.5],[1,0.5]];portConstraint=eastwest;whiteSpace=wrap;html=1;" vertex="1" parent="px1-QlT_4JjPkUcVD3Ua-0">
          <mxGeometry y="26" width="225" height="26" as="geometry" />
        </mxCell>
        <mxCell id="px1-QlT_4JjPkUcVD3Ua-7" value="conductorId: string" style="text;strokeColor=none;fillColor=none;align=left;verticalAlign=top;spacingLeft=4;spacingRight=4;overflow=hidden;rotatable=0;points=[[0,0.5],[1,0.5]];portConstraint=eastwest;whiteSpace=wrap;html=1;" vertex="1" parent="px1-QlT_4JjPkUcVD3Ua-0">
          <mxGeometry y="52" width="225" height="26" as="geometry" />
        </mxCell>
        <mxCell id="px1-QlT_4JjPkUcVD3Ua-2" value="marca: string(30)" style="text;strokeColor=none;fillColor=none;align=left;verticalAlign=top;spacingLeft=4;spacingRight=4;overflow=hidden;rotatable=0;points=[[0,0.5],[1,0.5]];portConstraint=eastwest;whiteSpace=wrap;html=1;" vertex="1" parent="px1-QlT_4JjPkUcVD3Ua-0">
          <mxGeometry y="78" width="225" height="26" as="geometry" />
        </mxCell>
        <mxCell id="px1-QlT_4JjPkUcVD3Ua-3" value="modelo: string(30)" style="text;strokeColor=none;fillColor=none;align=left;verticalAlign=top;spacingLeft=4;spacingRight=4;overflow=hidden;rotatable=0;points=[[0,0.5],[1,0.5]];portConstraint=eastwest;whiteSpace=wrap;html=1;" vertex="1" parent="px1-QlT_4JjPkUcVD3Ua-0">
          <mxGeometry y="104" width="225" height="26" as="geometry" />
        </mxCell>
        <mxCell id="px1-QlT_4JjPkUcVD3Ua-4" value="tipo: string(50)" style="text;strokeColor=none;fillColor=none;align=left;verticalAlign=top;spacingLeft=4;spacingRight=4;overflow=hidden;rotatable=0;points=[[0,0.5],[1,0.5]];portConstraint=eastwest;whiteSpace=wrap;html=1;" vertex="1" parent="px1-QlT_4JjPkUcVD3Ua-0">
          <mxGeometry y="130" width="225" height="26" as="geometry" />
        </mxCell>
        <mxCell id="px1-QlT_4JjPkUcVD3Ua-5" value="color: string(40)" style="text;strokeColor=none;fillColor=none;align=left;verticalAlign=top;spacingLeft=4;spacingRight=4;overflow=hidden;rotatable=0;points=[[0,0.5],[1,0.5]];portConstraint=eastwest;whiteSpace=wrap;html=1;" vertex="1" parent="px1-QlT_4JjPkUcVD3Ua-0">
          <mxGeometry y="156" width="225" height="26" as="geometry" />
        </mxCell>
        <mxCell id="px1-QlT_4JjPkUcVD3Ua-6" value="capacidad: number" style="text;strokeColor=none;fillColor=none;align=left;verticalAlign=top;spacingLeft=4;spacingRight=4;overflow=hidden;rotatable=0;points=[[0,0.5],[1,0.5]];portConstraint=eastwest;whiteSpace=wrap;html=1;" vertex="1" parent="px1-QlT_4JjPkUcVD3Ua-0">
          <mxGeometry y="182" width="225" height="26" as="geometry" />
        </mxCell>
        <mxCell id="px1-QlT_4JjPkUcVD3Ua-46" value="disponible: boolean" style="text;strokeColor=none;fillColor=none;align=left;verticalAlign=top;spacingLeft=4;spacingRight=4;overflow=hidden;rotatable=0;points=[[0,0.5],[1,0.5]];portConstraint=eastwest;whiteSpace=wrap;html=1;" vertex="1" parent="px1-QlT_4JjPkUcVD3Ua-0">
          <mxGeometry y="208" width="225" height="26" as="geometry" />
        </mxCell>
        <mxCell id="px1-QlT_4JjPkUcVD3Ua-10" value="RegistrarVehiculo()&lt;br&gt;&lt;br&gt;ResponderASolicitudDeTransporte()&lt;br&gt;&lt;br&gt;ModificarDatosVehiculo()&lt;br&gt;ObtenerDatosDeVehiculo()&lt;br&gt;BuscarVehiculosPorCapacidad()&lt;br&gt;DesactivarVehiculo()&lt;br&gt;CambiarStatusDeVehiculo()&lt;br&gt;TerminarTraslado()" style="text;whiteSpace=wrap;html=1;" vertex="1" parent="px1-QlT_4JjPkUcVD3Ua-0">
          <mxGeometry y="234" width="225" height="182" as="geometry" />
        </mxCell>
        <mxCell id="px1-QlT_4JjPkUcVD3Ua-11" value="" style="endArrow=none;html=1;rounded=0;exitX=0;exitY=0;exitDx=0;exitDy=0;entryX=1;entryY=0;entryDx=0;entryDy=0;" edge="1" parent="px1-QlT_4JjPkUcVD3Ua-0" source="px1-QlT_4JjPkUcVD3Ua-10" target="px1-QlT_4JjPkUcVD3Ua-10">
          <mxGeometry width="50" height="50" relative="1" as="geometry">
            <mxPoint x="20" y="300" as="sourcePoint" />
            <mxPoint x="70" y="250" as="targetPoint" />
          </mxGeometry>
        </mxCell>
        <mxCell id="px1-QlT_4JjPkUcVD3Ua-9" style="edgeStyle=orthogonalEdgeStyle;rounded=1;orthogonalLoop=1;jettySize=auto;html=1;entryX=0;entryY=0.5;entryDx=0;entryDy=0;endArrow=none;endFill=0;fillColor=#0050ef;strokeColor=#FFFFFF;" edge="1" parent="WIyWlLk6GJQsqaUBKTNV-1" source="zInEV3BXZZ9X4-jx_fkC-1" target="px1-QlT_4JjPkUcVD3Ua-7">
          <mxGeometry relative="1" as="geometry" />
        </mxCell>
        <mxCell id="px1-QlT_4JjPkUcVD3Ua-12" value="Solicitud de Envio" style="swimlane;fontStyle=0;childLayout=stackLayout;horizontal=1;startSize=26;fillColor=none;horizontalStack=0;resizeParent=1;resizeParentMax=0;resizeLast=0;collapsible=1;marginBottom=0;whiteSpace=wrap;html=1;" vertex="1" parent="WIyWlLk6GJQsqaUBKTNV-1">
          <mxGeometry x="160" y="510" width="200" height="360" as="geometry" />
        </mxCell>
        <mxCell id="px1-QlT_4JjPkUcVD3Ua-13" value="id: string" style="text;strokeColor=none;fillColor=none;align=left;verticalAlign=top;spacingLeft=4;spacingRight=4;overflow=hidden;rotatable=0;points=[[0,0.5],[1,0.5]];portConstraint=eastwest;whiteSpace=wrap;html=1;" vertex="1" parent="px1-QlT_4JjPkUcVD3Ua-12">
          <mxGeometry y="26" width="200" height="26" as="geometry" />
        </mxCell>
        <mxCell id="px1-QlT_4JjPkUcVD3Ua-14" value="fecha: number" style="text;strokeColor=none;fillColor=none;align=left;verticalAlign=top;spacingLeft=4;spacingRight=4;overflow=hidden;rotatable=0;points=[[0,0.5],[1,0.5]];portConstraint=eastwest;whiteSpace=wrap;html=1;" vertex="1" parent="px1-QlT_4JjPkUcVD3Ua-12">
          <mxGeometry y="52" width="200" height="26" as="geometry" />
        </mxCell>
        <mxCell id="px1-QlT_4JjPkUcVD3Ua-20" value="usuarioId: string" style="text;strokeColor=none;fillColor=none;align=left;verticalAlign=top;spacingLeft=4;spacingRight=4;overflow=hidden;rotatable=0;points=[[0,0.5],[1,0.5]];portConstraint=eastwest;whiteSpace=wrap;html=1;" vertex="1" parent="px1-QlT_4JjPkUcVD3Ua-12">
          <mxGeometry y="78" width="200" height="26" as="geometry" />
        </mxCell>
        <mxCell id="px1-QlT_4JjPkUcVD3Ua-15" value="origen: string" style="text;strokeColor=none;fillColor=none;align=left;verticalAlign=top;spacingLeft=4;spacingRight=4;overflow=hidden;rotatable=0;points=[[0,0.5],[1,0.5]];portConstraint=eastwest;whiteSpace=wrap;html=1;" vertex="1" parent="px1-QlT_4JjPkUcVD3Ua-12">
          <mxGeometry y="104" width="200" height="26" as="geometry" />
        </mxCell>
        <mxCell id="px1-QlT_4JjPkUcVD3Ua-18" value="destino: string" style="text;strokeColor=none;fillColor=none;align=left;verticalAlign=top;spacingLeft=4;spacingRight=4;overflow=hidden;rotatable=0;points=[[0,0.5],[1,0.5]];portConstraint=eastwest;whiteSpace=wrap;html=1;" vertex="1" parent="px1-QlT_4JjPkUcVD3Ua-12">
          <mxGeometry y="130" width="200" height="26" as="geometry" />
        </mxCell>
        <mxCell id="px1-QlT_4JjPkUcVD3Ua-19" value="peso: number" style="text;strokeColor=none;fillColor=none;align=left;verticalAlign=top;spacingLeft=4;spacingRight=4;overflow=hidden;rotatable=0;points=[[0,0.5],[1,0.5]];portConstraint=eastwest;whiteSpace=wrap;html=1;" vertex="1" parent="px1-QlT_4JjPkUcVD3Ua-12">
          <mxGeometry y="156" width="200" height="26" as="geometry" />
        </mxCell>
        <mxCell id="px1-QlT_4JjPkUcVD3Ua-17" value="costo: number" style="text;strokeColor=none;fillColor=none;align=left;verticalAlign=top;spacingLeft=4;spacingRight=4;overflow=hidden;rotatable=0;points=[[0,0.5],[1,0.5]];portConstraint=eastwest;whiteSpace=wrap;html=1;" vertex="1" parent="px1-QlT_4JjPkUcVD3Ua-12">
          <mxGeometry y="182" width="200" height="26" as="geometry" />
        </mxCell>
        <mxCell id="px1-QlT_4JjPkUcVD3Ua-21" value="cancelado: boolean" style="text;strokeColor=none;fillColor=none;align=left;verticalAlign=top;spacingLeft=4;spacingRight=4;overflow=hidden;rotatable=0;points=[[0,0.5],[1,0.5]];portConstraint=eastwest;whiteSpace=wrap;html=1;" vertex="1" parent="px1-QlT_4JjPkUcVD3Ua-12">
          <mxGeometry y="208" width="200" height="26" as="geometry" />
        </mxCell>
        <mxCell id="px1-QlT_4JjPkUcVD3Ua-34" value="" style="endArrow=none;html=1;rounded=0;exitX=0;exitY=0;exitDx=0;exitDy=0;entryX=1.002;entryY=0.959;entryDx=0;entryDy=0;entryPerimeter=0;" edge="1" parent="px1-QlT_4JjPkUcVD3Ua-12" target="px1-QlT_4JjPkUcVD3Ua-21">
          <mxGeometry width="50" height="50" relative="1" as="geometry">
            <mxPoint y="233" as="sourcePoint" />
            <mxPoint x="140" y="233" as="targetPoint" />
          </mxGeometry>
        </mxCell>
        <mxCell id="px1-QlT_4JjPkUcVD3Ua-33" value="GenerarEnvio()&lt;br&gt;CalcularDistanciaTiempoYCosto()&lt;br&gt;SeleccionarVehiculo()&lt;br&gt;&lt;br&gt;ProcesarRespuestasASolicitud()&lt;br&gt;CancelarSolicitud()" style="text;whiteSpace=wrap;html=1;" vertex="1" parent="px1-QlT_4JjPkUcVD3Ua-12">
          <mxGeometry y="234" width="200" height="126" as="geometry" />
        </mxCell>
        <mxCell id="px1-QlT_4JjPkUcVD3Ua-22" value="Boleto" style="swimlane;fontStyle=0;childLayout=stackLayout;horizontal=1;startSize=26;fillColor=none;horizontalStack=0;resizeParent=1;resizeParentMax=0;resizeLast=0;collapsible=1;marginBottom=0;whiteSpace=wrap;html=1;" vertex="1" parent="WIyWlLk6GJQsqaUBKTNV-1">
          <mxGeometry x="490" y="740" width="190" height="334" as="geometry" />
        </mxCell>
        <mxCell id="px1-QlT_4JjPkUcVD3Ua-23" value="id: string" style="text;strokeColor=none;fillColor=none;align=left;verticalAlign=top;spacingLeft=4;spacingRight=4;overflow=hidden;rotatable=0;points=[[0,0.5],[1,0.5]];portConstraint=eastwest;whiteSpace=wrap;html=1;" vertex="1" parent="px1-QlT_4JjPkUcVD3Ua-22">
          <mxGeometry y="26" width="190" height="26" as="geometry" />
        </mxCell>
        <mxCell id="px1-QlT_4JjPkUcVD3Ua-26" value="envioId: string" style="text;strokeColor=none;fillColor=none;align=left;verticalAlign=top;spacingLeft=4;spacingRight=4;overflow=hidden;rotatable=0;points=[[0,0.5],[1,0.5]];portConstraint=eastwest;whiteSpace=wrap;html=1;" vertex="1" parent="px1-QlT_4JjPkUcVD3Ua-22">
          <mxGeometry y="52" width="190" height="26" as="geometry" />
        </mxCell>
        <mxCell id="px1-QlT_4JjPkUcVD3Ua-47" value="usuarioId: string" style="text;strokeColor=none;fillColor=none;align=left;verticalAlign=top;spacingLeft=4;spacingRight=4;overflow=hidden;rotatable=0;points=[[0,0.5],[1,0.5]];portConstraint=eastwest;whiteSpace=wrap;html=1;" vertex="1" parent="px1-QlT_4JjPkUcVD3Ua-22">
          <mxGeometry y="78" width="190" height="26" as="geometry" />
        </mxCell>
        <mxCell id="px1-QlT_4JjPkUcVD3Ua-48" value="conductorId: string" style="text;strokeColor=none;fillColor=none;align=left;verticalAlign=top;spacingLeft=4;spacingRight=4;overflow=hidden;rotatable=0;points=[[0,0.5],[1,0.5]];portConstraint=eastwest;whiteSpace=wrap;html=1;" vertex="1" parent="px1-QlT_4JjPkUcVD3Ua-22">
          <mxGeometry y="104" width="190" height="26" as="geometry" />
        </mxCell>
        <mxCell id="px1-QlT_4JjPkUcVD3Ua-49" value="vehiculoId: string" style="text;strokeColor=none;fillColor=none;align=left;verticalAlign=top;spacingLeft=4;spacingRight=4;overflow=hidden;rotatable=0;points=[[0,0.5],[1,0.5]];portConstraint=eastwest;whiteSpace=wrap;html=1;" vertex="1" parent="px1-QlT_4JjPkUcVD3Ua-22">
          <mxGeometry y="130" width="190" height="26" as="geometry" />
        </mxCell>
        <mxCell id="px1-QlT_4JjPkUcVD3Ua-24" value="fecha: number" style="text;strokeColor=none;fillColor=none;align=left;verticalAlign=top;spacingLeft=4;spacingRight=4;overflow=hidden;rotatable=0;points=[[0,0.5],[1,0.5]];portConstraint=eastwest;whiteSpace=wrap;html=1;" vertex="1" parent="px1-QlT_4JjPkUcVD3Ua-22">
          <mxGeometry y="156" width="190" height="26" as="geometry" />
        </mxCell>
        <mxCell id="px1-QlT_4JjPkUcVD3Ua-25" value="completado: boolean" style="text;strokeColor=none;fillColor=none;align=left;verticalAlign=top;spacingLeft=4;spacingRight=4;overflow=hidden;rotatable=0;points=[[0,0.5],[1,0.5]];portConstraint=eastwest;whiteSpace=wrap;html=1;" vertex="1" parent="px1-QlT_4JjPkUcVD3Ua-22">
          <mxGeometry y="182" width="190" height="26" as="geometry" />
        </mxCell>
        <mxCell id="px1-QlT_4JjPkUcVD3Ua-31" value="GenerarBoleto()&lt;br&gt;CompletarTransporte()&lt;br&gt;BuscarBoletosPorUsuarioId()&lt;br&gt;BuscarBoletoPorId()&lt;br&gt;BuscarBoletosPorConductorId()&lt;br&gt;BuscarBoletosPorVehiculoId()" style="text;whiteSpace=wrap;html=1;" vertex="1" parent="px1-QlT_4JjPkUcVD3Ua-22">
          <mxGeometry y="208" width="190" height="126" as="geometry" />
        </mxCell>
        <mxCell id="px1-QlT_4JjPkUcVD3Ua-50" value="" style="endArrow=none;html=1;rounded=0;exitX=0;exitY=0;exitDx=0;exitDy=0;entryX=1;entryY=0;entryDx=0;entryDy=0;" edge="1" parent="px1-QlT_4JjPkUcVD3Ua-22" source="px1-QlT_4JjPkUcVD3Ua-31" target="px1-QlT_4JjPkUcVD3Ua-31">
          <mxGeometry width="50" height="50" relative="1" as="geometry">
            <mxPoint x="130" y="200" as="sourcePoint" />
            <mxPoint x="180" y="150" as="targetPoint" />
          </mxGeometry>
        </mxCell>
        <mxCell id="px1-QlT_4JjPkUcVD3Ua-40" style="edgeStyle=orthogonalEdgeStyle;rounded=1;orthogonalLoop=1;jettySize=auto;html=1;entryX=0;entryY=0.5;entryDx=0;entryDy=0;endArrow=none;endFill=0;" edge="1" parent="WIyWlLk6GJQsqaUBKTNV-1" source="px1-QlT_4JjPkUcVD3Ua-51" target="px1-QlT_4JjPkUcVD3Ua-26">
          <mxGeometry relative="1" as="geometry" />
        </mxCell>
        <mxCell id="px1-QlT_4JjPkUcVD3Ua-43" style="edgeStyle=orthogonalEdgeStyle;rounded=1;orthogonalLoop=1;jettySize=auto;html=1;entryX=0;entryY=0.5;entryDx=0;entryDy=0;endArrow=none;endFill=0;fillColor=#0050ef;strokeColor=#FFFFFF;" edge="1" parent="WIyWlLk6GJQsqaUBKTNV-1" source="zInEV3BXZZ9X4-jx_fkC-1" target="px1-QlT_4JjPkUcVD3Ua-20">
          <mxGeometry relative="1" as="geometry">
            <Array as="points">
              <mxPoint x="100" y="69" />
              <mxPoint x="100" y="600" />
            </Array>
          </mxGeometry>
        </mxCell>
        <mxCell id="px1-QlT_4JjPkUcVD3Ua-45" value="&lt;font style=&quot;font-size: 20px;&quot;&gt;Servicios&lt;/font&gt;" style="text;html=1;strokeColor=none;fillColor=none;align=center;verticalAlign=middle;whiteSpace=wrap;rounded=0;" vertex="1" parent="WIyWlLk6GJQsqaUBKTNV-1">
          <mxGeometry x="540" y="710" width="60" height="30" as="geometry" />
        </mxCell>
        <mxCell id="px1-QlT_4JjPkUcVD3Ua-52" value="" style="edgeStyle=orthogonalEdgeStyle;rounded=1;orthogonalLoop=1;jettySize=auto;html=1;entryX=0;entryY=0.5;entryDx=0;entryDy=0;endArrow=none;endFill=0;" edge="1" parent="WIyWlLk6GJQsqaUBKTNV-1" source="px1-QlT_4JjPkUcVD3Ua-13" target="px1-QlT_4JjPkUcVD3Ua-51">
          <mxGeometry relative="1" as="geometry">
            <mxPoint x="360" y="549" as="sourcePoint" />
            <mxPoint x="490" y="805" as="targetPoint" />
          </mxGeometry>
        </mxCell>
        <mxCell id="px1-QlT_4JjPkUcVD3Ua-51" value="Cola de Servicios&lt;br&gt;(RabbitMQ)" style="rounded=0;whiteSpace=wrap;html=1;" vertex="1" parent="WIyWlLk6GJQsqaUBKTNV-1">
          <mxGeometry x="410" y="536" width="120" height="60" as="geometry" />
        </mxCell>
        <mxCell id="px1-QlT_4JjPkUcVD3Ua-54" style="edgeStyle=orthogonalEdgeStyle;rounded=0;orthogonalLoop=1;jettySize=auto;html=1;entryX=1;entryY=0.769;entryDx=0;entryDy=0;entryPerimeter=0;endArrow=none;endFill=0;fillColor=#f5f5f5;strokeColor=#FFFFFF;" edge="1" parent="WIyWlLk6GJQsqaUBKTNV-1" source="px1-QlT_4JjPkUcVD3Ua-1" target="px1-QlT_4JjPkUcVD3Ua-49">
          <mxGeometry relative="1" as="geometry">
            <Array as="points">
              <mxPoint x="770" y="69" />
              <mxPoint x="770" y="890" />
            </Array>
          </mxGeometry>
        </mxCell>
        <mxCell id="px1-QlT_4JjPkUcVD3Ua-55" style="edgeStyle=orthogonalEdgeStyle;rounded=0;orthogonalLoop=1;jettySize=auto;html=1;exitX=0;exitY=0.75;exitDx=0;exitDy=0;entryX=0.194;entryY=-0.02;entryDx=0;entryDy=0;entryPerimeter=0;endArrow=none;endFill=0;" edge="1" parent="WIyWlLk6GJQsqaUBKTNV-1" source="px1-QlT_4JjPkUcVD3Ua-10" target="px1-QlT_4JjPkUcVD3Ua-51">
          <mxGeometry relative="1" as="geometry" />
        </mxCell>
      </root>
    </mxGraphModel>
  </diagram>
</mxfile>
